<svg xmlns="http://www.w3.org/2000/svg" viewBox="0 0 128 128" role="img" aria-label="Connector blinds icon">
  <g fill="#fff">
    <path d="M34 20h60c6.627 0 12 5.373 12 12v4c0 2.209-1.791 4-4 4H26c-2.209 0-4-1.791-4-4v-4c0-6.627 5.373-12 12-12Z"/>
    <path d="M30 46h68c4.418 0 8 3.582 8 8v3c0 4.418-3.582 8-8 8H30c-4.418 0-8-3.582-8-8v-3c0-4.418 3.582-8 8-8Z" opacity="0.96"/>
    <path d="M34 71h60c4.418 0 8 3.582 8 8v3c0 4.418-3.582 8-8 8H34c-4.418 0-8-3.582-8-8v-3c0-4.418 3.582-8 8-8Z" opacity="0.9"/>
    <path d="M41 96h46c4.418 0 8 3.582 8 8v2c0 1.105-.895 2-2 2H35c-1.105 0-2-.895-2-2v-2c0-4.418 3.582-8 8-8Z" opacity="0.84"/>
    <rect x="61" y="28" width="6" height="56" rx="3"/>
    <path d="M64 84c6.627 0 12 5.373 12 12 0 1.657-1.343 3-3 3H55c-1.657 0-3-1.343-3-3 0-6.627 5.373-12 12-12Z"/>
  </g>
</svg>